<?xml version="1.0" encoding="UTF-8" standalone="no"?>
<!-- Created with Inkscape (http://www.inkscape.org/) -->

<svg
   width="100mm"
   height="100mm"
   viewBox="0 0 100 100"
   version="1.1"
   id="svg5"
   inkscape:version="1.2.2 (732a01da63, 2022-12-09)"
   sodipodi:docname="Left parking icon (v1).svg"
   inkscape:export-filename="Left parking icon (v1).svg"
   inkscape:export-xdpi="96"
   inkscape:export-ydpi="96"
   xmlns:inkscape="http://www.inkscape.org/namespaces/inkscape"
   xmlns:sodipodi="http://sodipodi.sourceforge.net/DTD/sodipodi-0.dtd"
   xmlns:xlink="http://www.w3.org/1999/xlink"
   xmlns="http://www.w3.org/2000/svg"
   xmlns:svg="http://www.w3.org/2000/svg">
  <sodipodi:namedview
     id="namedview7"
     pagecolor="#505050"
     bordercolor="#eeeeee"
     borderopacity="1"
     inkscape:showpageshadow="0"
     inkscape:pageopacity="0"
     inkscape:pagecheckerboard="0"
     inkscape:deskcolor="#505050"
     inkscape:document-units="mm"
     showgrid="false"
     inkscape:zoom="1.0544998"
     inkscape:cx="157.89477"
     inkscape:cy="130.86773"
     inkscape:window-width="1920"
     inkscape:window-height="1017"
     inkscape:window-x="-8"
     inkscape:window-y="-8"
     inkscape:window-maximized="1"
     inkscape:current-layer="layer1" />
  <defs
     id="defs2">
    <linearGradient
       id="linearGradient1013"
       inkscape:swatch="solid">
      <stop
         style="stop-color:#000000;stop-opacity:1;"
         offset="0"
         id="stop1011" />
    </linearGradient>
    <rect
       x="161.21388"
       y="70.175454"
       width="128.9711"
       height="153.62734"
       id="rect402" />
    <linearGradient
       inkscape:collect="always"
       xlink:href="#linearGradient1013"
       id="linearGradient1015"
       x1="189.0792"
       y1="139.54409"
       x2="269.09201"
       y2="139.54409"
       gradientUnits="userSpaceOnUse" />
  </defs>
  <g
     inkscape:label="Layer 1"
     inkscape:groupmode="layer"
     id="layer1">
    <rect
       style="fill:#000000;stroke-width:2"
       id="rect234"
       width="69.016129"
       height="4.9677415"
       x="15.491936"
       y="63.161289" />
    <rect
       style="fill:#000000;stroke-width:2.0367"
       id="rect236"
       width="18.274193"
       height="4.9677415"
       x="-37.230072"
       y="55.606213"
       transform="rotate(-45)" />
    <rect
       style="fill:#000000;stroke-width:2.0367"
       id="rect346"
       width="18.274193"
       height="4.9677415"
       x="55.650566"
       y="32.306683"
       transform="rotate(45)" />
    <text
       xml:space="preserve"
       transform="matrix(0.26458333,0,0,0.37558179,-5.8497314,-12.352819)"
       id="text400"
       style="font-weight:bold;font-size:133.333px;font-family:sans-serif;-inkscape-font-specification:'sans-serif Bold';text-align:center;white-space:pre;shape-inside:url(#rect402);display:inline;fill:url(#linearGradient1015);fill-opacity:1;stroke-width:7.55906"><tspan
         x="176.83964"
         y="188.14423"
         id="tspan1202"><tspan
           style="fill:#000000"
           id="tspan1200">P</tspan></tspan></text>
    <path
       style="fill:#000000;fill-opacity:1;stroke-width:7.16838"
       d="M 167.85209,151.1887 V 82.842028 l 25.86544,0.30493 25.86544,0.304931 6.27528,3.091214 c 7.24699,3.569872 12.36243,8.78065 15.63285,15.924187 7.43802,16.24677 6.24787,41.42593 -2.58865,54.76665 -7.12847,10.76202 -14.62955,14.01394 -33.82892,14.66571 l -13.51351,0.45875 v 23.58848 23.58849 h -11.85396 -11.85397 z m 42.60914,-4.65506 c 4.20127,-1.20491 8.25668,-5.13948 9.71051,-9.42119 1.95232,-5.74977 1.41844,-16.19364 -1.093,-21.38157 -3.04567,-6.29151 -7.12409,-8.04849 -18.74679,-8.07608 l -8.77193,-0.0208 v 19.91466 19.91465 h 7.82987 c 4.30643,0 9.28854,-0.41834 11.07134,-0.92964 z"
       id="path1086"
       transform="scale(0.26458333)" />
    <path
       style="fill:#000000;fill-opacity:1;stroke-width:7.16838"
       d="M 167.85209,151.1887 V 82.842028 l 25.86544,0.30493 25.86544,0.304931 6.27528,3.091214 c 13.71437,6.755713 20.70952,20.786137 20.68052,41.479677 -0.0282,20.10268 -8.61862,35.98066 -22.31787,41.25077 -4.60764,1.77256 -8.09534,2.25091 -19.14737,2.6261 l -13.51351,0.45875 v 23.58848 23.58849 h -11.85396 -11.85397 z m 46.13245,-6.1773 c 4.20883,-3.14235 5.99513,-6.23691 6.93555,-12.01505 1.07226,-6.58826 -0.159,-15.36857 -2.61675,-18.66047 -3.95175,-5.29293 -6.30096,-6.20615 -16.8524,-6.55115 l -9.89092,-0.3234 v 20.10853 20.10854 l 9.91792,-0.36714 c 8.12792,-0.30087 10.38513,-0.71595 12.5066,-2.29986 z"
       id="path1088"
       transform="scale(0.26458333)" />
    <path
       style="fill:#000000;fill-opacity:1;stroke-width:7.16838"
       d="M 167.85209,151.1887 V 82.842028 l 25.86544,0.30493 25.86544,0.304931 6.27528,3.091214 c 3.46563,1.707169 7.85453,4.839243 9.80247,6.995376 15.35452,16.995621 14.23136,55.648161 -2.03304,69.964651 -6.99542,6.15761 -12.7893,7.86134 -28.55415,8.39652 l -13.51351,0.45875 v 23.58848 23.58849 h -11.85396 -11.85397 z m 46.27253,-6.26355 c 4.77843,-3.53346 6.9834,-8.95064 6.97913,-17.14636 -0.004,-8.31341 -1.0668,-11.88318 -4.65684,-15.64632 -3.22688,-3.38248 -7.42022,-4.48669 -17.06328,-4.49321 l -7.82361,-0.005 v 20.03896 20.03896 l 9.9994,-0.44472 c 8.04735,-0.3579 10.5003,-0.81511 12.5652,-2.34202 z"
       id="path1090"
       transform="scale(0.26458333)" />
    <path
       style="fill:#000000;fill-opacity:1;stroke-width:7.16838"
       d="M 167.85209,151.18964 V 82.843908 l 26.3158,0.30399 26.31579,0.303991 5.94438,3.223425 c 3.2694,1.772884 7.47785,4.920803 9.3521,6.995376 15.2362,16.86465 14.04296,55.57664 -2.15248,69.83244 -6.99542,6.15761 -12.7893,7.86134 -28.55415,8.39652 l -13.51351,0.45875 v 23.58848 23.58849 h -11.85396 -11.85397 z m 45.64992,-6.2065 c 4.92523,-2.8279 7.45583,-8.74538 7.45583,-17.43451 0,-5.58128 -0.47617,-8.11656 -2.13371,-11.36043 -3.48755,-6.82529 -5.86573,-7.97724 -17.34619,-8.40221 l -9.91792,-0.36714 v 20.14901 20.14899 l 9.37679,-0.45152 c 6.90554,-0.33252 10.2171,-0.934 12.5652,-2.28219 z"
       id="path1092"
       transform="scale(0.26458333)" />
    <path
       style="fill:#000000;fill-opacity:1;stroke-width:7.16838"
       d="M 74.450429,272.66761 C 61.418696,259.64902 50.644066,248.66052 50.506805,248.24874 50.369544,247.83696 60.92623,236.83746 73.966107,223.8054 l 23.708867,-23.69464 6.391226,6.39123 6.39123,6.39123 -13.252986,13.2784 -13.252988,13.2784 H 201.29297 318.63448 v 9.00901 9.00901 H 201.29297 83.951456 l 13.252988,13.2784 13.252986,13.2784 -6.15647,6.15648 -6.156474,6.15647 z"
       id="path1094"
       transform="scale(0.26458333)" />
  </g>
</svg>
