<?xml version="1.0" encoding="UTF-8" standalone="no"?>
<!-- Created with Inkscape (http://www.inkscape.org/) -->

<svg
   width="100"
   height="100"
   viewBox="0 0 26.458333 26.458333"
   version="1.1"
   id="svg5"
   sodipodi:docname="Left indication icon (v1).svg"
   inkscape:version="1.2.2 (732a01da63, 2022-12-09)"
   xmlns:inkscape="http://www.inkscape.org/namespaces/inkscape"
   xmlns:sodipodi="http://sodipodi.sourceforge.net/DTD/sodipodi-0.dtd"
   xmlns="http://www.w3.org/2000/svg"
   xmlns:svg="http://www.w3.org/2000/svg">
  <sodipodi:namedview
     id="namedview9"
     pagecolor="#505050"
     bordercolor="#eeeeee"
     borderopacity="1"
     inkscape:showpageshadow="0"
     inkscape:pageopacity="0"
     inkscape:pagecheckerboard="0"
     inkscape:deskcolor="#505050"
     inkscape:document-units="mm"
     showgrid="false"
     inkscape:zoom="4.429125"
     inkscape:cx="36.463184"
     inkscape:cy="10.837355"
     inkscape:window-width="1920"
     inkscape:window-height="1017"
     inkscape:window-x="-8"
     inkscape:window-y="-8"
     inkscape:window-maximized="1"
     inkscape:current-layer="layer1" />
  <defs
     id="defs2" />
  <g
     id="layer1">
    <text
       xml:space="preserve"
       style="font-style:normal;font-variant:normal;font-weight:normal;font-stretch:normal;font-size:25.4px;font-family:Roboto;-inkscape-font-specification:'Roboto, Normal';font-variant-ligatures:normal;font-variant-caps:normal;font-variant-numeric:normal;font-variant-east-asian:normal;text-align:center;text-anchor:middle;fill:#000000;stroke-width:0.264999"
       x="12.491227"
       y="18.057812"
       id="text277"><tspan
         sodipodi:role="line"
         id="tspan275"
         style="font-style:normal;font-variant:normal;font-weight:normal;font-stretch:normal;font-size:25.4px;font-family:Roboto;-inkscape-font-specification:'Roboto, Normal';font-variant-ligatures:normal;font-variant-caps:normal;font-variant-numeric:normal;font-variant-east-asian:normal;stroke-width:0.265"
         x="12.491227"
         y="18.057812">L</tspan></text>
    <path
       style="fill:#000000;stroke-width:0.0149578"
       d="m 13.013157,26.449538 c -0.248518,-0.03428 -0.623714,-0.288127 -0.791395,-0.535432 -0.159045,-0.23457 -0.19003,-0.346978 -0.209222,-0.759041 -0.02395,-0.514207 -0.03595,-2.776406 -0.01793,-3.379502 0.01778,-0.594813 0.02759,-0.664885 0.11849,-0.845432 0.150768,-0.299474 0.476816,-0.62054 0.709719,-0.698874 0.234763,-0.07896 0.679128,-0.05129 0.913502,0.05688 0.222207,0.102556 0.545817,0.441153 0.660004,0.690572 0.02912,0.06359 0.04065,0.122392 0.05175,0.263864 0.02302,0.293208 0.03403,3.355192 0.01351,3.755292 -0.03192,0.622258 -0.08161,0.786681 -0.305196,1.009871 -0.149731,0.149468 -0.346037,0.299 -0.464875,0.354109 -0.161327,0.07481 -0.476438,0.115547 -0.67836,0.08769 z"
       id="path375" />
    <path
       style="fill:#000000;stroke-width:0.226134"
       d="M 29.464059,34.092513 V 0.11288911 h 4.402675 4.402676 V 30.59295 61.073011 h 16.143143 16.143144 v 3.499563 3.499562 H 50.009878 29.464059 Z"
       id="path182"
       transform="scale(0.26458333)" />
    <path
       style="fill:#000000;stroke-width:0.226134"
       d="m 48.18115,99.457351 c -1.089069,-0.575617 -2.157565,-1.830553 -2.447483,-2.874542 -0.143946,-0.518348 -0.237329,-3.888601 -0.238095,-8.592996 -0.0014,-8.535043 0.02377,-8.715096 1.421298,-10.172032 0.985958,-1.02787 1.758508,-1.39185 2.954208,-1.39185 1.356581,0 2.114842,0.315845 3.14897,1.311667 1.548054,1.490711 1.505528,1.207347 1.504135,10.022477 -8.13e-4,5.089042 -0.09094,8.29634 -0.249364,8.873007 -0.154536,0.562516 -0.618614,1.259954 -1.230531,1.8493 -1.481175,1.426537 -3.313678,1.793918 -4.863138,0.974969 z"
       id="path184"
       transform="scale(0.26458333)" />
  </g>
</svg>
