<?xml version="1.0" encoding="UTF-8" standalone="no"?>
<!-- Created with Inkscape (http://www.inkscape.org/) -->

<svg
   width="100mm"
   height="100mm"
   viewBox="0 0 100 100"
   version="1.1"
   id="svg871"
   inkscape:version="1.2.2 (732a01da63, 2022-12-09)"
   sodipodi:docname="Stop icon (v2).svg"
   inkscape:export-filename="Stop icon (v2).svg"
   inkscape:export-xdpi="96"
   inkscape:export-ydpi="96"
   xmlns:inkscape="http://www.inkscape.org/namespaces/inkscape"
   xmlns:sodipodi="http://sodipodi.sourceforge.net/DTD/sodipodi-0.dtd"
   xmlns="http://www.w3.org/2000/svg"
   xmlns:svg="http://www.w3.org/2000/svg">
  <sodipodi:namedview
     id="namedview873"
     pagecolor="#505050"
     bordercolor="#eeeeee"
     borderopacity="1"
     inkscape:showpageshadow="0"
     inkscape:pageopacity="0"
     inkscape:pagecheckerboard="0"
     inkscape:deskcolor="#505050"
     inkscape:document-units="mm"
     showgrid="false"
     inkscape:zoom="5.8012344"
     inkscape:cx="160.82784"
     inkscape:cy="180.99596"
     inkscape:window-width="1920"
     inkscape:window-height="1017"
     inkscape:window-x="-8"
     inkscape:window-y="-8"
     inkscape:window-maximized="1"
     inkscape:current-layer="layer1" />
  <defs
     id="defs868" />
  <g
     inkscape:label="Layer 1"
     inkscape:groupmode="layer"
     id="layer1">
    <path
       sodipodi:type="star"
       style="fill:#ffffff;fill-opacity:1;stroke-width:2"
       id="path929"
       inkscape:flatsided="true"
       sodipodi:sides="8"
       sodipodi:cx="37.763512"
       sodipodi:cy="49.256756"
       sodipodi:r1="18.609001"
       sodipodi:r2="17.192476"
       sodipodi:arg1="0"
       sodipodi:arg2="0.39269908"
       inkscape:rounded="0"
       inkscape:randomized="0"
       d="m 56.372513,49.256756 -5.45045,13.158551 -13.158551,5.45045 -13.158551,-5.45045 -5.450451,-13.158551 5.450451,-13.158551 13.158551,-5.45045 13.158551,5.45045 z"
       transform="matrix(0.72581448,-1.7522712,1.7522712,0.72581448,-63.720498,80.420647)" />
    <path
       sodipodi:type="star"
       style="fill:#ed171f;fill-opacity:1;stroke-width:2"
       id="path931"
       inkscape:flatsided="true"
       sodipodi:sides="8"
       sodipodi:cx="37.763512"
       sodipodi:cy="49.256756"
       sodipodi:r1="18.609001"
       sodipodi:r2="17.192476"
       sodipodi:arg1="0"
       sodipodi:arg2="0.39269908"
       inkscape:rounded="0"
       inkscape:randomized="0"
       d="m 56.372513,49.256756 -5.45045,13.158551 -13.158551,5.45045 -13.158551,-5.45045 -5.450451,-13.158551 5.450451,-13.158551 13.158551,-5.45045 13.158551,5.45045 z"
       transform="matrix(0.62429642,-1.5071849,1.5071849,0.62429642,-47.814664,76.165778)" />
    <text
       xml:space="preserve"
       style="font-style:normal;font-variant:normal;font-weight:normal;font-stretch:normal;font-size:19.7556px;font-family:Arial;-inkscape-font-specification:Arial;text-align:center;text-anchor:middle;fill:#ffffff;fill-opacity:1;stroke-width:2"
       x="49.985531"
       y="57.075554"
       id="text1794"><tspan
         sodipodi:role="line"
         id="tspan1792"
         style="font-style:normal;font-variant:normal;font-weight:bold;font-stretch:normal;font-family:Arial;-inkscape-font-specification:'Arial Bold';stroke-width:2"
         x="49.985531"
         y="57.075554">STOP</tspan></text>
    <path
       style="fill:#ffffff;stroke-width:1.30301"
       d="m 108.85614,216.41466 c -3.04956,-0.34536 -6.08023,-1.18068 -8.2741,-2.28055 -5.176897,-2.59538 -8.553,-7.62883 -9.630811,-14.35863 l -0.222392,-1.3886 5.012791,-0.46964 c 2.757035,-0.2583 5.094232,-0.46731 5.193772,-0.46445 0.0995,0.003 0.28023,0.49 0.40154,1.08254 0.69273,3.3838 2.5893,6.22822 5.07964,7.61828 1.85922,1.03777 3.43629,1.37854 6.40424,1.38383 4.21178,0.007 6.65756,-0.79813 8.59749,-2.83194 1.42144,-1.49024 1.91089,-2.64264 1.90679,-4.48949 -0.003,-1.24444 -0.072,-1.59741 -0.45924,-2.34261 -1.15241,-2.2175 -2.92007,-3.03009 -11.21975,-5.15772 -8.93843,-2.29137 -12.790536,-4.06414 -15.401545,-7.08791 -2.426198,-2.80974 -3.498275,-5.65631 -3.503134,-9.30151 -0.0032,-2.37374 0.388438,-4.043 1.452162,-6.19006 1.442208,-2.911 3.525155,-4.91574 6.726597,-6.47404 3.20959,-1.56226 6.22651,-2.13226 11.29731,-2.13444 5.30573,-0.002 8.67704,0.67535 12.09475,2.43104 4.49551,2.30935 7.46758,6.75539 8.04729,12.03827 0.0832,0.75846 0.13756,1.39692 0.12074,1.4188 -0.048,0.0625 -10.51696,0.53516 -10.57777,0.47761 -0.0299,-0.0283 -0.16763,-0.53725 -0.30616,-1.13108 -1.09329,-4.68651 -4.40644,-6.74971 -10.41312,-6.48458 -2.39399,0.10567 -3.90691,0.4356 -5.37932,1.1731 -2.05051,1.02705 -2.92925,2.26664 -2.92925,4.13209 0,3.17492 2.27552,4.52343 11.60682,6.87839 8.87601,2.24007 12.78514,3.96301 15.49995,6.83158 3.05177,3.22461 4.32421,7.23906 3.92131,12.37142 -0.44356,5.65029 -4.31654,10.82577 -9.74371,13.02057 -1.49159,0.60321 -3.48648,1.13338 -5.56358,1.4786 -1.94933,0.32398 -7.77055,0.47408 -9.73931,0.25113 z"
       id="path321"
       transform="scale(0.26458333)" />
    <path
       style="fill:#ffffff;stroke-width:1.30301"
       d="m 155.31177,193.40711 v -22.15045 h -7.92934 -7.92935 v -4.48181 -4.4818 h 21.11619 21.1162 v 4.4818 4.48181 h -7.84316 -7.84316 v 22.15045 22.15046 h -5.34369 -5.34369 z"
       id="path323"
       transform="scale(0.26458333)" />
    <path
       style="fill:#ffffff;stroke-width:1.30301"
       d="m 207.98415,216.40589 c -6.28814,-0.59889 -11.62113,-3.02364 -15.50008,-7.04744 -4.28766,-4.44777 -6.45801,-9.781 -7.03841,-17.29564 -0.3556,-4.60402 0.27847,-10.55154 1.51969,-14.25455 1.96981,-5.87664 6.60591,-11.34405 11.69927,-13.79708 5.78495,-2.78612 14.23264,-3.36283 20.94381,-1.4298 7.53796,2.17117 13.3725,7.91794 15.82924,15.59111 2.01378,6.28967 2.08433,14.77817 0.17664,21.25285 -0.6297,2.13719 -2.06289,5.17269 -3.28316,6.95375 -3.48307,5.08374 -9.10514,8.59091 -15.53296,9.6898 -2.38588,0.40789 -6.44156,0.56295 -8.81404,0.337 z m 6.13615,-9.19292 c 6.63806,-1.27459 10.75154,-6.40534 11.70404,-14.59846 0.28713,-2.4698 0.113,-7.65019 -0.3297,-9.80859 -0.79265,-3.86462 -1.85449,-5.98101 -4.15501,-8.28153 -2.71114,-2.71115 -5.16339,-3.74462 -9.27865,-3.91038 -4.39352,-0.17697 -7.30752,0.71053 -10.21959,3.11254 -3.91871,3.23234 -5.71094,8.64574 -5.4513,16.46563 0.15391,4.63545 0.96641,7.84151 2.69835,10.64743 0.87641,1.4199 2.70197,3.36179 3.99203,4.24644 1.52707,1.04717 3.9657,1.99926 5.75439,2.24663 1.22683,0.16966 4.11962,0.10414 5.28544,-0.11971 z"
       id="path325"
       transform="scale(0.26458333)" />
    <path
       style="fill:#ffffff;stroke-width:1.30301"
       d="m 245.63738,188.90323 v -26.65435 l 12.36805,0.0962 c 12.62571,0.0982 15.08818,0.2124 17.51263,0.81187 5.41695,1.33941 9.51421,5.94109 10.54308,11.84104 0.3327,1.90787 0.32993,5.62209 -0.006,7.54637 -0.85374,4.89572 -4.01646,9.00133 -8.55534,11.1059 -1.61153,0.74724 -2.98596,1.11995 -5.14433,1.39504 -1.67502,0.21349 -9.24967,0.50212 -13.40232,0.5107 l -2.80113,0.006 v 9.99787 9.99787 h -5.2575 -5.2575 z m 23.18472,-2.72858 c 1.98307,-0.35616 3.418,-1.02822 4.49245,-2.10408 2.79419,-2.79785 2.80921,-7.67717 0.032,-10.41088 -0.97746,-0.96217 -2.4953,-1.75821 -3.92117,-2.0565 -0.55199,-0.11548 -3.52261,-0.2378 -7.11056,-0.29279 l -6.16248,-0.0944 v 7.57622 c 0,4.16692 0.0582,7.63734 0.12928,7.71205 0.24103,0.25326 10.84727,-0.0255 12.54044,-0.32957 z"
       id="path327"
       transform="scale(0.26458333)" />
  </g>
</svg>
