<?xml version="1.0" encoding="UTF-8" standalone="no"?>
<!-- Created with Inkscape (http://www.inkscape.org/) -->

<svg
   width="100"
   height="100"
   viewBox="0 0 26.458333 26.458333"
   version="1.1"
   id="svg5"
   sodipodi:docname="Zero FB indication icon (v1).svg"
   inkscape:version="1.2.2 (732a01da63, 2022-12-09)"
   xmlns:inkscape="http://www.inkscape.org/namespaces/inkscape"
   xmlns:sodipodi="http://sodipodi.sourceforge.net/DTD/sodipodi-0.dtd"
   xmlns="http://www.w3.org/2000/svg"
   xmlns:svg="http://www.w3.org/2000/svg">
  <sodipodi:namedview
     id="namedview9"
     pagecolor="#505050"
     bordercolor="#eeeeee"
     borderopacity="1"
     inkscape:showpageshadow="0"
     inkscape:pageopacity="0"
     inkscape:pagecheckerboard="0"
     inkscape:deskcolor="#505050"
     inkscape:document-units="mm"
     showgrid="false"
     inkscape:zoom="4.429125"
     inkscape:cx="-2.8222279"
     inkscape:cy="28.899613"
     inkscape:window-width="1920"
     inkscape:window-height="1017"
     inkscape:window-x="-8"
     inkscape:window-y="-8"
     inkscape:window-maximized="1"
     inkscape:current-layer="layer1" />
  <defs
     id="defs2" />
  <g
     id="layer1">
    <text
       xml:space="preserve"
       style="font-style:normal;font-variant:normal;font-weight:normal;font-stretch:normal;font-size:25.4px;font-family:Roboto;-inkscape-font-specification:'Roboto, Normal';font-variant-ligatures:normal;font-variant-caps:normal;font-variant-numeric:normal;font-variant-east-asian:normal;text-align:center;text-anchor:middle;fill:#000000;stroke-width:0.264999"
       x="13.235368"
       y="22.258072"
       id="text277"><tspan
         sodipodi:role="line"
         id="tspan115"
         x="13.235368"
         y="22.258072">0</tspan></text>
    <path
       style="fill:#000000;stroke-width:0.0598313"
       d="m 0.1136083,12.74528 c 0.152298,-0.28815 0.484333,-0.570856 0.760555,-0.647563 0.137147,-0.03809 1.028859,-0.06279 2.273564,-0.063 2.25823,-3.71e-4 2.305869,0.0063 2.69135,0.376051 0.271957,0.260868 0.36826,0.465272 0.36826,0.781635 0,0.358928 -0.08357,0.559551 -0.347045,0.833164 -0.394417,0.40959 -0.319444,0.398338 -2.65178,0.39797 -1.346476,-2.16e-4 -2.195073,-0.02406 -2.34765,-0.06598 -0.148832,-0.04089 -0.333363,-0.163675 -0.489294,-0.325578 -0.377438,-0.391895 -0.474641,-0.876744 -0.25796,-1.286705 z"
       id="path184" />
    <path
       style="fill:#000000;stroke-width:0.226134"
       d="M 2.5964496,53.783024 C 2.0997375,53.502957 1.3631361,52.781945 0.95955747,52.180774 0.36416324,51.293875 0.22577823,50.864655 0.22577823,49.904861 c 0,-1.35929 0.50306997,-2.262494 1.87526387,-3.366819 0.8514257,-0.685217 0.8926063,-0.693207 4.5155646,-0.876111 4.0818683,-0.206072 12.4824723,-0.02677 13.7092403,0.29261 0.793504,0.206583 2.197464,1.467235 2.676839,2.403602 0.353783,0.691048 0.314689,2.684288 -0.06693,3.412728 -0.435946,0.832135 -1.689765,1.998371 -2.461078,2.289167 C 20.06852,54.213165 16.89,54.298323 11.669325,54.29595 3.6120771,54.292287 3.4871249,54.285223 2.5964496,53.783024 Z"
       id="path242"
       transform="scale(0.26458333)" />
    <path
       style="fill:#000000;stroke-width:0.0598313"
       d="M 12.380337,22.422005 C 9.6320616,22.10232 8.0914114,20.216107 7.6771419,16.663899 7.5703687,15.748357 7.5484697,10.803541 7.6472455,9.9132338 7.9608683,7.0864192 8.8969678,5.3498424 10.543606,4.5401372 c 1.512092,-0.743544 3.864253,-0.743544 5.376344,0 1.671766,0.822061 2.607169,2.5855731 2.89753,5.4627018 0.109911,1.08909 0.04906,6.297545 -0.08305,7.108722 -0.416935,2.560031 -1.311124,4.055912 -2.87422,4.808256 -1.007743,0.485044 -2.176845,0.653759 -3.479876,0.502188 z m 1.755361,-1.868994 c 1.363491,-0.363055 2.126488,-1.532638 2.420456,-3.710267 0.113428,-0.84024 0.11445,-6.580921 0.0013,-7.3476704 C 16.241027,7.3507046 15.506335,6.2663815 14.130208,5.912736 13.713688,5.8056962 12.864829,5.793097 12.413321,5.887254 11.28538,6.1224717 10.499023,6.9889075 10.125847,8.4076769 9.8500272,9.4563061 9.8267489,9.8291905 9.8267489,13.198778 c 0,2.757947 0.013864,3.253528 0.1075457,3.844544 0.2047364,1.291622 0.5513484,2.132717 1.1251194,2.73024 0.60409,0.629097 1.169673,0.852443 2.172353,0.857852 0.328554,0.0018 0.735318,-0.03351 0.903919,-0.0784 z"
       id="path240" />
  </g>
</svg>
