<?xml version="1.0" encoding="UTF-8" standalone="no"?>
<!-- Created with Inkscape (http://www.inkscape.org/) -->

<svg
   width="100"
   height="100"
   viewBox="0 0 26.458333 26.458333"
   version="1.1"
   id="svg5"
   sodipodi:docname="Backward indication icon (v1).svg"
   inkscape:version="1.2.2 (732a01da63, 2022-12-09)"
   xmlns:inkscape="http://www.inkscape.org/namespaces/inkscape"
   xmlns:sodipodi="http://sodipodi.sourceforge.net/DTD/sodipodi-0.dtd"
   xmlns="http://www.w3.org/2000/svg"
   xmlns:svg="http://www.w3.org/2000/svg">
  <sodipodi:namedview
     id="namedview9"
     pagecolor="#505050"
     bordercolor="#eeeeee"
     borderopacity="1"
     inkscape:showpageshadow="0"
     inkscape:pageopacity="0"
     inkscape:pagecheckerboard="0"
     inkscape:deskcolor="#505050"
     inkscape:document-units="mm"
     showgrid="false"
     inkscape:zoom="4.429125"
     inkscape:cx="-2.8222279"
     inkscape:cy="10.837355"
     inkscape:window-width="1920"
     inkscape:window-height="1017"
     inkscape:window-x="-8"
     inkscape:window-y="-8"
     inkscape:window-maximized="1"
     inkscape:current-layer="layer1" />
  <defs
     id="defs2" />
  <g
     id="layer1">
    <text
       xml:space="preserve"
       style="font-style:normal;font-variant:normal;font-weight:normal;font-stretch:normal;font-size:25.4px;font-family:Roboto;-inkscape-font-specification:'Roboto, Normal';font-variant-ligatures:normal;font-variant-caps:normal;font-variant-numeric:normal;font-variant-east-asian:normal;text-align:center;text-anchor:middle;fill:#000000;stroke-width:0.264999"
       x="12.894303"
       y="22.258072"
       id="text277"><tspan
         sodipodi:role="line"
         id="tspan169"
         x="12.894303"
         y="22.258072">B</tspan></text>
    <path
       style="fill:#000000;stroke-width:0.0598313"
       d="m 0.1136083,12.74528 c 0.152298,-0.28815 0.484333,-0.570856 0.760555,-0.647563 0.137147,-0.03809 1.028859,-0.06279 2.273564,-0.063 2.25823,-3.71e-4 2.305869,0.0063 2.69135,0.376051 0.271957,0.260868 0.36826,0.465272 0.36826,0.781635 0,0.358928 -0.08357,0.559551 -0.347045,0.833164 -0.394417,0.40959 -0.319444,0.398338 -2.65178,0.39797 -1.346476,-2.16e-4 -2.195073,-0.02406 -2.34765,-0.06598 -0.148832,-0.04089 -0.333363,-0.163675 -0.489294,-0.325578 -0.377438,-0.391895 -0.474641,-0.876744 -0.25796,-1.286705 z"
       id="path184" />
    <path
       style="fill:#000000;stroke-width:0.0598313"
       d="M 0.62724012,14.247307 C 0.49581838,14.173206 0.30092593,13.982438 0.19414575,13.823378 0.03661436,13.58872 0,13.475155 0,13.22121 0,12.861564 0.13310392,12.622591 0.49616356,12.330405 0.7214366,12.149108 0.7323323,12.146994 1.6909066,12.098601 c 1.0799943,-0.05452 3.3026541,-0.0071 3.6272365,0.07742 0.2099479,0.05466 0.5814123,0.388206 0.708247,0.635953 0.093605,0.18284 0.083261,0.710218 -0.017709,0.902951 C 5.8933371,13.935094 5.5615974,14.24366 5.3575209,14.3206 5.2500582,14.36111 4.4090748,14.38365 3.0277713,14.38302 0.89595783,14.38205 0.86289756,14.38022 0.62723972,14.247308 Z"
       id="path242" />
    <path
       style="fill:#000000;stroke-width:0.226134"
       d="m 26.867609,50.009514 v -34.12921 l 13.37736,0.09318 c 11.516036,0.08021 13.675801,0.148309 15.522254,0.489426 4.955414,0.915471 8.646807,2.683601 11.163667,5.347255 2.476277,2.6207 3.718999,5.477321 4.199245,9.652704 0.587204,5.10533 -0.671268,9.192174 -3.832718,12.446616 -1.477809,1.521278 -4.154914,3.43049 -5.436885,3.877389 -0.915386,0.319104 -0.849059,0.518886 0.284926,0.858235 4.935618,1.476998 9.143747,6.072522 10.487313,11.452759 0.583392,2.336156 0.523139,7.040582 -0.123702,9.658478 -1.841847,7.454324 -7.43459,12.256846 -16.083369,13.810882 -1.798213,0.323106 -4.240973,0.39662 -15.842063,0.476758 l -13.716028,0.09474 z m 28.560946,26.321389 c 2.055433,-0.600927 4.36733,-1.911448 5.669942,-3.214059 2.243917,-2.243918 3.42735,-5.910086 3.139661,-9.726387 -0.38159,-5.061916 -2.166067,-8.018877 -5.914164,-9.800041 -2.836179,-1.347801 -4.685729,-1.545613 -14.466573,-1.547202 l -8.184461,-0.0013 v 12.433575 12.433578 l 9.200463,-0.09104 c 7.923685,-0.07841 9.388455,-0.146002 10.555132,-0.487092 z m -2.191819,-31.64192 c 3.686063,-0.749334 6.807417,-2.989738 8.184068,-5.874251 1.260586,-2.641319 1.338782,-6.638353 0.189941,-9.708905 C 61.013214,27.508778 59.176496,25.57436 57.460559,24.734878 54.821873,23.443962 53.67615,23.31039 44.308978,23.201627 L 35.67296,23.101354 v 10.970702 10.970701 h 7.911757 c 6.291888,0 8.26806,-0.07243 9.652019,-0.353774 z"
       id="path240"
       transform="scale(0.26458333)" />
  </g>
</svg>
