<?xml version="1.0" encoding="UTF-8" standalone="no"?>
<!-- Created with Inkscape (http://www.inkscape.org/) -->

<svg
   width="100mm"
   height="100mm"
   viewBox="0 0 100 100"
   version="1.1"
   id="svg1158"
   inkscape:version="1.2.2 (732a01da63, 2022-12-09)"
   sodipodi:docname="Left blinker icon (v1).svg"
   inkscape:export-filename="Left blinker icon (v1).svg"
   inkscape:export-xdpi="96"
   inkscape:export-ydpi="96"
   xmlns:inkscape="http://www.inkscape.org/namespaces/inkscape"
   xmlns:sodipodi="http://sodipodi.sourceforge.net/DTD/sodipodi-0.dtd"
   xmlns="http://www.w3.org/2000/svg"
   xmlns:svg="http://www.w3.org/2000/svg">
  <sodipodi:namedview
     id="namedview1160"
     pagecolor="#505050"
     bordercolor="#eeeeee"
     borderopacity="1"
     inkscape:showpageshadow="0"
     inkscape:pageopacity="0"
     inkscape:pagecheckerboard="0"
     inkscape:deskcolor="#505050"
     inkscape:document-units="mm"
     showgrid="false"
     inkscape:zoom="4.1020922"
     inkscape:cx="180.03008"
     inkscape:cy="174.3013"
     inkscape:window-width="1920"
     inkscape:window-height="1017"
     inkscape:window-x="-8"
     inkscape:window-y="-8"
     inkscape:window-maximized="1"
     inkscape:current-layer="layer1" />
  <defs
     id="defs1155" />
  <g
     inkscape:label="Layer 1"
     inkscape:groupmode="layer"
     id="layer1">
    <path
       id="path1214"
       style="fill:#000000;stroke-width:2.31735;stroke-dasharray:none"
       inkscape:transform-center-x="5.4219544"
       d="M 54.758882,26.725451 38.492692,38.362985 22.227018,50 38.492692,61.637532 54.758882,73.274548 V 62.248865 h 23.0141 V 37.751652 h -23.0141 z m -2.276346,5.220354 v 8.215003 h 1.79989 v 5.17e-4 H 75.077539 V 59.839193 H 54.282426 v 0.02067 h -1.79989 v 8.194331 L 39.865218,59.027357 27.2479,50 39.865218,40.973162 Z" />
    <path
       id="path801"
       style="fill:#000000;stroke-width:2.16964;stroke-dasharray:none"
       inkscape:transform-center-x="5.0763657"
       d="M 54.455591,28.209131 39.226029,39.10459 23.996985,50.000049 39.226029,60.895508 54.455591,71.790967 V 61.468083 H 76.002596 V 38.532532 H 54.455591 Z m -3.256132,5.692676 v 5.700944 h -0.0057 v 1.741495 h 23.04512 V 58.652751 H 51.193774 v 1.741495 h 0.0057 v 5.704045 L 40.511222,58.451729 28.69799,50.000049 40.511222,41.548368 Z" />
  </g>
</svg>
