<?xml version="1.0" encoding="UTF-8" standalone="no"?>
<!-- Created with Inkscape (http://www.inkscape.org/) -->

<svg
   width="100mm"
   height="100mm"
   viewBox="0 0 100 100"
   version="1.1"
   id="svg1158"
   inkscape:version="1.2.2 (732a01da63, 2022-12-09)"
   sodipodi:docname="Right blinker icon (v1).svg"
   inkscape:export-filename="Right blinker icon (v1).svg"
   inkscape:export-xdpi="96"
   inkscape:export-ydpi="96"
   xmlns:inkscape="http://www.inkscape.org/namespaces/inkscape"
   xmlns:sodipodi="http://sodipodi.sourceforge.net/DTD/sodipodi-0.dtd"
   xmlns="http://www.w3.org/2000/svg"
   xmlns:svg="http://www.w3.org/2000/svg">
  <sodipodi:namedview
     id="namedview1160"
     pagecolor="#505050"
     bordercolor="#eeeeee"
     borderopacity="1"
     inkscape:showpageshadow="0"
     inkscape:pageopacity="0"
     inkscape:pagecheckerboard="0"
     inkscape:deskcolor="#505050"
     inkscape:document-units="mm"
     showgrid="false"
     inkscape:zoom="2.0510461"
     inkscape:cx="139.19726"
     inkscape:cy="183.32109"
     inkscape:window-width="1920"
     inkscape:window-height="1017"
     inkscape:window-x="-8"
     inkscape:window-y="-8"
     inkscape:window-maximized="1"
     inkscape:current-layer="layer1" />
  <defs
     id="defs1155" />
  <g
     inkscape:label="Layer 1"
     inkscape:groupmode="layer"
     id="layer1">
    <path
       id="path1214"
       style="fill:#000000;stroke-width:2.31735;stroke-dasharray:none"
       inkscape:transform-center-x="-5.421954"
       d="M 45.241118,26.725451 61.507308,38.362985 77.772982,50 61.507308,61.637532 45.241118,73.274548 V 62.248865 h -23.0141 V 37.751652 h 23.0141 z m 2.276346,5.220354 v 8.215004 h -1.79989 v 5.17e-4 H 24.922461 v 19.677869 h 20.795113 v 0.02067 h 1.79989 v 8.194331 L 60.134782,59.027357 72.7521,50 60.134782,40.973162 Z" />
    <path
       id="path801"
       style="fill:#000000;stroke-width:2.16964;stroke-dasharray:none"
       inkscape:transform-center-x="-5.0763653"
       d="M 45.544409,28.209131 60.773971,39.10459 76.003015,50.000049 60.773971,60.895508 45.544409,71.790967 V 61.468083 H 23.997404 v -22.93555 h 21.547005 z m 3.256132,5.692676 v 5.700944 h 0.0057 v 1.741495 h -23.04512 v 17.308505 h 23.045105 v 1.741495 h -0.0057 v 5.704045 l 10.688252,-7.646562 11.813232,-8.45168 -11.813232,-8.45168 z" />
  </g>
</svg>
