<?xml version="1.0" encoding="UTF-8" standalone="no"?>
<!-- Created with Inkscape (http://www.inkscape.org/) -->

<svg
   width="100mm"
   height="100mm"
   viewBox="0 0 100 100"
   version="1.1"
   id="svg5"
   inkscape:version="1.2.2 (732a01da63, 2022-12-09)"
   sodipodi:docname="Right parking icon (v1).svg"
   inkscape:export-filename="Right parking icon (v1).svg"
   inkscape:export-xdpi="96"
   inkscape:export-ydpi="96"
   xmlns:inkscape="http://www.inkscape.org/namespaces/inkscape"
   xmlns:sodipodi="http://sodipodi.sourceforge.net/DTD/sodipodi-0.dtd"
   xmlns="http://www.w3.org/2000/svg"
   xmlns:svg="http://www.w3.org/2000/svg">
  <sodipodi:namedview
     id="namedview7"
     pagecolor="#505050"
     bordercolor="#eeeeee"
     borderopacity="1"
     inkscape:showpageshadow="0"
     inkscape:pageopacity="0"
     inkscape:pagecheckerboard="0"
     inkscape:deskcolor="#505050"
     inkscape:document-units="mm"
     showgrid="false"
     inkscape:zoom="1.0544998"
     inkscape:cx="109.05645"
     inkscape:cy="282.59844"
     inkscape:window-width="1920"
     inkscape:window-height="1017"
     inkscape:window-x="-8"
     inkscape:window-y="-8"
     inkscape:window-maximized="1"
     inkscape:current-layer="layer1" />
  <defs
     id="defs2">
    <rect
       x="161.21388"
       y="70.175454"
       width="128.9711"
       height="153.62734"
       id="rect402" />
  </defs>
  <g
     inkscape:label="Layer 1"
     inkscape:groupmode="layer"
     id="layer1">
    <rect
       style="fill:#000000;stroke-width:2"
       id="rect234"
       width="69.016129"
       height="4.9677415"
       x="-82.010025"
       y="63.161289"
       transform="scale(-1,1)" />
    <rect
       style="fill:#000000;stroke-width:2.0367"
       id="rect236"
       width="18.274193"
       height="4.9677415"
       x="-106.17437"
       y="-13.338083"
       transform="matrix(-0.70710678,-0.70710678,-0.70710678,0.70710678,0,0)" />
    <rect
       style="fill:#000000;stroke-width:2.0367"
       id="rect346"
       width="18.274193"
       height="4.9677415"
       x="-13.29373"
       y="101.25098"
       transform="matrix(-0.70710678,0.70710678,0.70710678,0.70710678,0,0)" />
    <text
       xml:space="preserve"
       transform="matrix(0.26458333,0,0,0.37558179,-13.258067,-12.352819)"
       id="text400"
       style="font-weight:bold;font-size:133.333px;font-family:sans-serif;-inkscape-font-specification:'sans-serif Bold';text-align:center;white-space:pre;shape-inside:url(#rect402);display:inline;fill:#000000;stroke-width:7.55906"><tspan
         x="176.83964"
         y="188.14423"
         id="tspan410">P</tspan></text>
    <path
       style="fill:#000000;stroke-width:7.16838"
       d="M 139.40259,151.1887 V 82.842028 l 25.84163,0.357878 c 29.90886,0.414204 31.64985,0.785435 40.16012,8.563339 9.03717,8.259465 12.68052,18.541265 12.68052,35.785385 0,16.00612 -2.99948,25.52304 -10.66528,33.83945 -7.22293,7.83596 -12.87912,9.79833 -30.55847,10.60205 l -13.27644,0.60355 -0.25365,23.47084 -0.25364,23.47085 h -11.8374 -11.83739 z m 46.13889,-5.88933 c 1.64477,-0.87086 3.99185,-3.194 5.21575,-5.16255 1.92748,-3.10022 2.22526,-4.78477 2.22526,-12.58819 0,-9.95122 -1.36672,-13.63785 -6.46718,-17.44474 -2.32765,-1.73732 -3.98546,-1.99576 -12.80227,-1.99576 h -10.12837 l -0.25829,18.46423 c -0.14206,10.15532 -0.0298,19.05964 0.24945,19.78737 0.74083,1.93057 17.87935,1.10323 21.96565,-1.06036 z"
       id="path308"
       transform="scale(0.26458333)" />
    <path
       style="fill:#000000;stroke-width:7.16838"
       d="m 264.53496,290.15708 -6.1939,-6.1939 13.31409,-13.23871 13.31408,-13.23871 -117.82837,-0.009 -117.82838,-0.009 v -9.00901 -9.00901 H 167.12859 284.9447 l -13.50904,-13.53319 -13.50905,-13.53318 6.11069,-6.05637 6.11068,-6.05637 24.00618,23.46312 c 13.20339,12.90472 24.11364,23.7494 24.24499,24.09929 0.13135,0.3499 -10.54073,11.40951 -23.71574,24.57692 l -23.95455,23.94074 z"
       id="path310"
       transform="scale(0.26458333)" />
    <path
       style="fill:#000000;stroke-width:7.16838"
       d="m 264.33727,289.95939 -6.39158,-6.39158 13.02491,-13.04988 13.02491,-13.04989 H 166.65399 49.31248 v -9.00901 -9.00901 H 167.12859 284.9447 l -13.50904,-13.53319 -13.50905,-13.53318 6.10845,-6.05416 6.10845,-6.05415 24.00841,23.4415 c 13.20462,12.89282 24.11588,23.73651 24.24723,24.09708 0.13135,0.36056 -10.54073,11.42891 -23.71574,24.59632 l -23.95455,23.94074 z"
       id="path312"
       transform="scale(0.26458333)" />
    <path
       style="fill:#000000;stroke-width:7.16838"
       d="M 139.40259,151.1887 V 82.842028 l 25.84163,0.357878 c 29.90886,0.414204 31.64985,0.785435 40.16012,8.563339 9.03717,8.259465 12.68052,18.541265 12.68052,35.785385 0,16.00932 -2.99923,25.52276 -10.66983,33.84439 -7.29065,7.90942 -15.92315,10.7265 -32.86965,10.7265 h -10.28307 l -0.69641,23.70792 -0.69642,23.70793 h -11.73345 -11.73344 z m 46.39833,-6.12114 c 5.20705,-3.04249 7.18157,-7.98956 7.18157,-17.99309 0,-6.82932 -0.37901,-9.17831 -1.89663,-11.75484 -3.53347,-5.9989 -6.07317,-7.12512 -16.97784,-7.52878 l -9.78664,-0.36228 -0.68386,15.61445 c -0.37612,8.58794 -0.37963,17.64315 -0.008,20.12269 l 0.67605,4.50824 9.14592,-0.36734 c 6.9033,-0.27728 9.93139,-0.8263 12.34923,-2.23905 z"
       id="path314"
       transform="scale(0.26458333)" />
    <path
       style="fill:#000000;stroke-width:7.16838"
       d="M 139.40259,151.1887 V 82.842028 l 25.84163,0.357878 c 30.10837,0.416967 31.71636,0.769383 40.46424,8.868377 9.04056,8.369967 12.4163,18.136347 12.39041,35.846857 -0.0229,15.6584 -3.0755,25.22381 -10.68384,33.47788 -7.3042,7.92412 -15.91823,10.7265 -32.97139,10.7265 h -10.38481 v 15.02739 c 0,8.26506 -0.27728,18.93362 -0.61617,23.70792 l -0.61616,8.68054 h -11.71196 -11.71195 z m 46.72324,-6.43536 c 4.20017,-2.59585 6.29485,-6.96696 7.01034,-14.62897 0.80421,-8.61213 -1.44957,-15.88411 -5.99817,-19.3535 -3.14724,-2.40051 -4.28167,-2.65618 -13.26042,-2.98855 l -9.81875,-0.36347 v 20.14901 20.14899 l 9.36568,-0.45098 c 7.42771,-0.35767 10.05589,-0.87757 12.70132,-2.51253 z"
       id="path316"
       transform="scale(0.26458333)" />
    <path
       style="fill:#000000;stroke-width:7.16838"
       d="M 139.40259,151.25655 V 82.97773 h 23.18708 c 30.53977,0 34.33758,0.815604 43.43883,9.328755 8.5781,8.023815 12.09259,18.136065 12.07037,34.730145 -0.0222,16.57584 -2.93839,25.95357 -10.68384,34.35639 -7.3042,7.92412 -15.91823,10.7265 -32.97139,10.7265 h -10.38481 v 17.87891 c 0,9.8334 -0.27417,20.50197 -0.60926,23.70793 l -0.60925,5.82901 h -11.71887 -11.71886 z m 46.36878,-6.40645 c 6.25095,-4.62868 8.88071,-13.60109 6.89068,-23.5102 -2.0873,-10.39341 -5.72514,-12.93539 -19.35713,-13.52596 l -9.24609,-0.40056 v 20.16285 20.16285 l 9.6215,-0.53018 c 7.43128,-0.40948 10.18365,-0.94644 12.09104,-2.3588 z"
       id="path318"
       transform="scale(0.26458333)" />
  </g>
</svg>
