<?xml version="1.0" encoding="UTF-8" standalone="no"?>
<!-- Created with Inkscape (http://www.inkscape.org/) -->

<svg
   xmlns:dc="http://purl.org/dc/elements/1.1/"
   xmlns:cc="http://creativecommons.org/ns#"
   xmlns:rdf="http://www.w3.org/1999/02/22-rdf-syntax-ns#"
   xmlns:svg="http://www.w3.org/2000/svg"
   xmlns="http://www.w3.org/2000/svg"
   xmlns:sodipodi="http://sodipodi.sourceforge.net/DTD/sodipodi-0.dtd"
   xmlns:inkscape="http://www.inkscape.org/namespaces/inkscape"
   width="879.91449"
   height="837.29156"
   id="svg2"
   version="1.1"
   inkscape:version="0.48.4 r9939"
   sodipodi:docname="Nowy dokument 1">
  <defs
     id="defs4" />
  <sodipodi:namedview
     id="base"
     pagecolor="#ffffff"
     bordercolor="#666666"
     borderopacity="1.0"
     inkscape:pageopacity="0.0"
     inkscape:pageshadow="2"
     inkscape:zoom="0.35"
     inkscape:cx="570.67153"
     inkscape:cy="287.21721"
     inkscape:document-units="px"
     inkscape:current-layer="g3009"
     showgrid="false"
     fit-margin-top="0"
     fit-margin-left="0"
     fit-margin-right="0"
     fit-margin-bottom="0"
     inkscape:window-width="1366"
     inkscape:window-height="705"
     inkscape:window-x="-8"
     inkscape:window-y="-8"
     inkscape:window-maximized="1" />
  <metadata
     id="metadata7">
    <rdf:RDF>
      <cc:Work
         rdf:about="">
        <dc:format>image/svg+xml</dc:format>
        <dc:type
           rdf:resource="http://purl.org/dc/dcmitype/StillImage" />
        <dc:title></dc:title>
      </cc:Work>
    </rdf:RDF>
  </metadata>
  <g
     inkscape:label="Layer 1"
     inkscape:groupmode="layer"
     id="layer1"
     transform="translate(195.67153,17.712165)">
    <g
       id="g3009"
       transform="matrix(1.7219077,0,0,1.6376952,-195.276,-17.307536)">
      <path
         id="path2987"
         d="M 510.444,150.444 360.108,0.108 l -209.664,0 -150.336,150.336 0,209.88 73.285795,73.28579 77.050205,77.05021 209.664,0 150.336,-150.336 z"
         inkscape:connector-curvature="0"
         style="fill:#ffffff;stroke:#000000;stroke-width:0.69256133;stroke-miterlimit:4;stroke-opacity:0.97628455;stroke-dasharray:none"
         sodipodi:nodetypes="cccccccccc" />
      <path
         id="path2989"
         d="M 159.732,487.98 H 350.82 L 487.764,350.82 V 159.732 L 350.82,22.788 H 159.732 L 22.788,159.732 V 350.82 z"
         inkscape:connector-curvature="0"
         style="fill:#ed171f" />
      <path
         id="path3001"
         d="m 423.324,242.244 c 9.72,0 17.568,-7.848 17.568,-17.568 0,-9.504 -7.848,-17.568 -17.352,-17.568 h -24.912 v 35.136 h 24.696 z"
         inkscape:connector-curvature="0"
         style="fill:#ed171f" />
      <g
         transform="scale(0.97524022,1.0253884)"
         style="font-size:23.81982230999999900px;font-style:normal;font-weight:normal;line-height:125%;letter-spacing:0px;word-spacing:0px;fill:#ffffff;fill-opacity:1;stroke:none;font-family:Sans"
         id="text3795">
        <path
           d="m 38.941358,262.96948 23.447638,-2.27963 c 1.411169,7.87019 4.274275,13.65067 8.589325,17.34148 4.314975,3.69085 10.13617,5.53626 17.463605,5.53625 7.761539,10e-6 13.609874,-1.64186 17.545024,-4.92564 3.935,-3.28373 5.90253,-7.12381 5.90261,-11.52028 -8e-5,-2.82236 -0.8278,-5.22411 -2.48317,-7.20526 -1.65552,-1.98106 -4.54576,-3.70436 -8.67074,-5.16988 -2.822463,-0.97694 -9.254274,-2.7138 -19.295449,-5.21059 -12.917947,-3.20228 -21.982186,-7.13735 -27.192746,-11.80523 -7.327401,-6.56744 -10.99109,-14.57328 -10.99108,-24.01754 -10e-6,-6.07893 1.723281,-11.76443 5.169878,-17.05653 3.446567,-5.29189 8.412902,-9.32195 14.89902,-12.09019 6.486057,-2.768 14.315498,-4.15206 23.488345,-4.15219 14.980362,1.3e-4 26.256392,3.28388 33.828102,9.85127 7.57154,6.56761 11.54732,15.33333 11.92736,26.29717 l -24.09896,1.05841 c -1.03134,-6.13321 -3.24312,-10.54321 -6.63536,-13.23001 -3.392373,-2.68661 -8.480831,-4.02996 -15.265388,-4.03006 -7.001772,1e-4 -12.483737,1.43844 -16.445912,4.31502 -2.551051,1.84551 -3.826558,4.3151 -3.826525,7.4088 -3.3e-5,2.82249 1.194058,5.23781 3.582278,7.24597 3.039469,2.55109 10.421125,5.21066 22.144991,7.97871 11.723746,2.76819 20.394476,5.6313 26.012226,8.58932 5.61757,2.95816 10.014,7.00179 13.18929,12.1309 3.1751,5.12922 4.7627,11.46605 4.7628,19.0105 -1e-4,6.83892 -1.89979,13.24359 -5.69907,19.21403 -3.79948,5.97048 -9.1729,10.40761 -16.12026,13.31142 -6.94752,2.90382 -15.60468,4.35572 -25.97151,4.35573 -15.089029,-10e-6 -26.677144,-3.48729 -34.764379,-10.46188 -8.087276,-6.97457 -12.917919,-17.13792 -14.491943,-30.49007 z"
           style="font-size:166.73875427000002000px;font-variant:normal;font-weight:bold;font-stretch:normal;font-family:Arial;-inkscape-font-specification:Arial Bold;fill:#ffffff"
           id="path3808" />
        <path
           d="m 183.29087,301.80463 0,-99.16397 -35.4157,0 0,-20.19102 94.84895,0 0,20.19102 -35.33429,0 0,99.16397 z"
           style="font-size:166.73875426999999000px;font-variant:normal;font-weight:bold;font-stretch:normal;font-family:Arial;-inkscape-font-specification:Arial Bold;fill:#ffffff"
           id="path3810" />
        <path
           d="m 253.47095,242.85987 c 0,-12.15796 1.81827,-22.36202 5.45484,-30.61219 2.71383,-6.07892 6.41823,-11.53375 11.1132,-16.3645 4.69493,-4.83054 9.83766,-8.41281 15.42822,-10.74683 7.43589,-3.14794 16.01164,-4.72197 25.72727,-4.7221 17.58564,1.3e-4 31.65693,5.45495 42.21389,16.3645 10.55674,10.90976 15.83517,26.08015 15.83529,45.51121 -1.2e-4,19.26836 -5.23784,34.34376 -15.71317,45.22626 -10.47555,10.88253 -24.47898,16.32379 -42.01035,16.32379 -17.74861,0 -31.8606,-5.41412 -42.33601,-16.24237 -10.47546,-10.82823 -15.71318,-25.7408 -15.71318,-44.73777 z m 24.8317,-0.81415 c -3e-5,13.515 3.12089,23.75976 9.36278,30.73431 6.2418,6.97461 14.16622,10.4619 23.77329,10.46188 9.60695,2e-5 17.49067,-3.46013 23.65118,-10.38046 6.16034,-6.92027 9.24055,-17.30073 9.24065,-31.14139 -1e-4,-13.67772 -2.9989,-23.88177 -8.9964,-30.6122 -5.99769,-6.73024 -13.96282,-10.09541 -23.89543,-10.09551 -9.93273,1e-4 -17.93857,3.40598 -24.01754,10.21764 -6.07905,6.81184 -9.11856,17.08374 -9.11853,30.81573 z"
           style="font-size:166.73875426999999000px;font-variant:normal;font-weight:bold;font-stretch:normal;font-family:Arial;-inkscape-font-specification:Arial Bold;fill:#ffffff"
           id="path3812" />
        <path
           d="m 387.96921,301.80463 0,-119.35499 38.67231,0 c 14.65471,1.2e-4 24.20744,0.59716 28.65823,1.79114 6.83881,1.79125 12.56502,5.68562 17.17865,11.68311 4.61344,5.9977 6.9202,13.74573 6.92031,23.2441 -1.1e-4,7.32746 -1.32989,13.48789 -3.98936,18.4813 -2.65966,4.99353 -6.0384,8.91504 -10.13621,11.76452 -4.098,2.84959 -8.26375,4.73571 -12.49727,5.65837 -5.75343,1.13986 -14.08493,1.70977 -24.99453,1.70973 l -15.71317,0 0,45.02272 z m 24.09896,-99.16397 0,33.86881 13.18929,0 c 9.49841,7e-5 15.8488,-0.62412 19.05121,-1.87255 3.20227,-1.24831 5.71257,-3.20227 7.53092,-5.86191 1.8182,-2.6595 2.72734,-5.75328 2.72742,-9.28136 -8e-5,-4.34207 -1.27559,-7.92434 -3.82652,-10.74683 -2.55109,-2.82231 -5.78057,-4.58631 -9.68844,-5.29201 -2.87674,-0.54267 -8.65723,-0.81405 -17.34148,-0.81415 z"
           style="font-size:166.73875426999999000px;font-variant:normal;font-weight:bold;font-stretch:normal;font-family:Arial;-inkscape-font-specification:Arial Bold;fill:#ffffff"
           id="path3814" />
      </g>
    </g>
  </g>
</svg>
